<svg xmlns="http://www.w3.org/2000/svg" viewBox="0 0 290.32 137.07"><defs><style>.cls-1{font-size:35.53px;fill:#f6eae0;font-family:Bebas-Regular, Bebas;letter-spacing:0.27em;}.cls-2{font-size:97.41px;fill:#a53a1d;font-family:BonheurRoyale, Bonheur Royale;}.cls-3{font-size:72.43px;}.cls-4{letter-spacing:0.01em;}.cls-5{letter-spacing:0em;}.cls-6{fill:#ef8022;}</style></defs><g id="Camada_2" data-name="Camada 2"><g id="content"><text class="cls-1" transform="translate(0 24.16) scale(1 0.8)">Churrascaria</text><text class="cls-2" transform="translate(3.93 96.74)">Bela<tspan class="cls-3" x="134.52" y="0"> </tspan><tspan x="146.18" y="0">R</tspan><tspan class="cls-4" x="224.31" y="0">i</tspan><tspan class="cls-5" x="239.5" y="0">o</tspan></text><path class="cls-6" d="M145.43,123a20.76,20.76,0,0,0,3.87,2,1.39,1.39,0,0,0,.92,0,24.45,24.45,0,0,1,11.37-.68c1,.17,2.06.48,3.09.74.25.07.55.15.52.49s-.3.34-.52.4a24.76,24.76,0,0,1-9,1.06,26.25,26.25,0,0,1-5.71-1,.62.62,0,0,0-.37,0,17.47,17.47,0,0,0-4,2,46.24,46.24,0,0,0,6.1,2.53c.35.13.78.11.59.74s-.31.61-.8.43a44.68,44.68,0,0,1-6.25-2.87.87.87,0,0,0-1.11.08,25.35,25.35,0,0,0-3,2.71c-.45.49-.77.5-1.2,0a24.45,24.45,0,0,0-3.06-2.69.93.93,0,0,0-1.24-.07,40.3,40.3,0,0,1-6.12,2.81c-.36.14-.64.22-.8-.31s0-.65.45-.81a47.88,47.88,0,0,0,6.27-2.58,18.34,18.34,0,0,0-4-2c-.61-.2-1.25.27-1.87.42a24.51,24.51,0,0,1-12.21-.1c-.4-.1-.79-.24-1.19-.35-.22-.07-.41-.17-.4-.42s.2-.34.41-.4a23.93,23.93,0,0,1,4.81-1,25.15,25.15,0,0,1,8.16.48s.12,0,.15,0c2.45,1.27,4.18-.44,6.22-1.41a32.65,32.65,0,0,0-3.84-2,46.28,46.28,0,0,0-11.6-3.58,44.67,44.67,0,0,0-11.32-.35,67,67,0,0,0-14.14,3c-5,1.59-10,3.35-15,5.08s-10.16,3.7-15.42,5a73.22,73.22,0,0,1-10.28,1.8,59.67,59.67,0,0,1-11.1.15A39.9,39.9,0,0,1,31,129.81a18.5,18.5,0,0,1-8.39-6.2c-.27-.39-.31-.6.11-.84a2.83,2.83,0,0,0,.56-.42c.34-.32.54-.23.79.13a19.18,19.18,0,0,0,6.61,5.89A23.71,23.71,0,0,0,38.6,131a35.89,35.89,0,0,0,6.63.46,69.67,69.67,0,0,0,10.49-1.13c8.18-1.5,16-4.26,23.76-7.08,4.92-1.79,9.84-3.55,14.83-5.13a51.78,51.78,0,0,1,11-2.29,50,50,0,0,1,11.34.24,55.41,55.41,0,0,1,18.63,6.19,1.22,1.22,0,0,0,1.58-.16,29.17,29.17,0,0,0,3.15-2.83c.33-.35.51-.37.86,0a29.5,29.5,0,0,0,3.4,3,.91.91,0,0,0,1.13.09,58.07,58.07,0,0,1,12.28-5,50.92,50.92,0,0,1,9.58-1.64,50,50,0,0,1,8.21.07,52.75,52.75,0,0,1,11.65,2.51c3.81,1.25,7.63,2.47,11.4,3.85,4.68,1.71,9.35,3.43,14.1,4.94,3.45,1.1,7,2,10.51,2.77a74.72,74.72,0,0,0,9,1.38,38.62,38.62,0,0,0,11.75-.59,21,21,0,0,0,11.5-6.48,16.93,16.93,0,0,0,1.42-1.77c.27-.4.43-.31.73-.08,1,.78,1,.77.24,1.74a18.91,18.91,0,0,1-9.1,6.13,39,39,0,0,1-9.58,1.92,56.87,56.87,0,0,1-6.9.28,77.4,77.4,0,0,1-11.74-1.31c-6.75-1.28-13.13-3.76-19.59-6-4.8-1.65-9.59-3.34-14.44-4.86a75.6,75.6,0,0,0-11.11-2.7,45.46,45.46,0,0,0-10.09-.48,43.8,43.8,0,0,0-15.07,3.72C148.56,121.5,147,122.24,145.43,123Zm-8.66,0L140,125c.19.12.34.28.62.1,1.09-.68,2.2-1.34,3.35-2a32.63,32.63,0,0,1-3.34-2.9c-.2-.22-.32-.15-.49,0A30.94,30.94,0,0,1,136.77,123Zm.17,5.06a28,28,0,0,1,3.15,2.75c.26.28.42.13.64-.06.9-.8,1.79-1.6,2.73-2.35.43-.34.23-.48-.09-.66l-2.55-1.52c-.23-.13-.41-.27-.71-.08C139.08,126.81,138,127.42,136.94,128.07Zm2.86-2.48c-1.19-.7-2.22-1.3-3.25-1.92a.75.75,0,0,0-.87,0,21,21,0,0,1-3.48,1.76,25.8,25.8,0,0,1,3.73,2,.43.43,0,0,0,.5,0Zm1.24,0a24.18,24.18,0,0,1,2.37,1.33,1.82,1.82,0,0,0,2.42,0,24.58,24.58,0,0,1,2.71-1.42,21.8,21.8,0,0,1-3.48-1.76c-.17-.11-.33-.28-.56-.14Zm-23.56-.08a22.58,22.58,0,0,0,12.23,0A21.48,21.48,0,0,0,117.48,125.5Zm33.58,0a22.91,22.91,0,0,0,12.32,0A21.62,21.62,0,0,0,151.06,125.5Z"/></g></g></svg>