<svg xmlns="http://www.w3.org/2000/svg" viewBox="0 0 1926.16 449.3"><defs><style>.cls-1{opacity:0.88;}</style></defs><g id="Camada_2" data-name="Camada 2"><g id="background"><path class="cls-1" d="M1920,284.05l6.16-2.58c-2.32-3.85-3-7.9-6.16-11.77a23.83,23.83,0,0,0-8.32-6.34c-2.15-1.08-1.82-3.13-.4-4.51a37.18,37.18,0,0,1,8.72-6.22V75.14q-25.76,0-51.53,0c-5.27,0-10.56.12-16.79-1.92,14.55-1.39,27-.89,39.2-1.11q14.55-.26,29.12-.2V13.46c-5.46-.41-10.91-.63-16.76-.74-30-.57-59.86-1.35-89.73-2.18-14.15-.39-28.14-1.18-42.28-1.62-54.19-1.67-108.5-3.09-162.6-5C1526.19,1.12,1443.44-.38,1360.07.09c-44.41.25-88.79.19-133.2.36q-63,.26-126.12.71C1048.39,1.59,996,2.21,943.67,2.7c-26.18.25-52.37.53-78.52.55-48.3,0-96.57-.32-144.88-.14-34.88.13-69.82.81-104.73,1.35-13.43.2-26.87.69-40.31,1-35.68.89-71.39,1.62-107,2.69Q413.54,9.82,359,12c-50.58,2.09-101.21,4.14-151.59,6.84-41,2.2-81.85,4.25-123.17,4.7-7.8.09-15.67.86-23.42,1.46-1.46.11-2.5.92-3.59,1.36,5.89,2.41,14.37-1.53,19.4,1.06C57.51,32,57.4,31.94,49.7,39.51c-1.46,1.43-1.6,3-2.49,4.49-1.49,2.52-3.09,5-4.44,7.22L26.26,54C25,56.12,25,57.71,23,59s-5.74,2.36-8.29,3.35C25.9,69.21,25.52,70,10,74.78c-2.34.71-4.84,1.37-7.4,2.08L.33,82.2c2.78,1.56,10.49,1.71,9,4.17-.73,1.22-2,2.72-.57,3.66,1.81,1.2,6.15,2,11.08,3.38-7,1-9,2.48-8.72,4.49.37,3-.44,6.08-.74,9.09-2.74.53-4.67,1-6.82,1.3q-1.93.25-3.6.51V298.65a30,30,0,0,1,7.34.76c9.68,3.12,20.36,1.84,31.12,1.37,15.79-.69,31.54-1.62,47.35-2.17a348.69,348.69,0,0,1,49.85,2.29c1.06,2.69,2.08,4.92,2.78,7.16.78,2.51-.91,4.82-9.12,5.8-6.81.81-10,2.48-13.2,4.37-3.48,2.09-6.68,4.32-11.45,6.07-5.25,1.92-7.85,3.92-8.37,6.34-.56,2.59-1.36,5.17-1.91,7.76-.72,3.31-1.29,6.63-2.06,10.63,2.28,1.64,6.82,3.85,8.34,6.31,1.64,2.64.46,5.52.5,8.31,15.23,1.45,24.14,4.53,27.33,9.07,1.11,1.59.89,4.25-2.11,5.08-9.31,2.55-13,7.56-28.5,7.56-.81,0-1.73.8-2.57,1.22,3.41,1.57,7.68,3,10,4.73,2.71,2,3.73,4.33,5.4,6.41,10.34.29,19,.45,27.6.79,10.27.4,17,2.3,20.75,5.43,5.32,4.38,5.29,9,5.87,13.7.43,3.46-6.95,5.59-12.33,8.45,5.93,1,10.64,1.84,15.29,2.68,7.13,1.29,9.58,3.15,6.3,5.84-.73.59.29,1.39.57,2.3,4.19.29,7.92.76,11.71.75,4.7,0,9.43-.47,14.17-.65,11.2-.41,15.48.57,14.12,4.05-1.19,3.07.93,5.53,6.11,8.24,3-.05,6.18.09,9.08-.18,17.17-1.55,34.58-1.86,52.07-2.25,19-.42,38-.62,56.92-.9,32.39-.47,64.81-1.57,97.26-1.78s65.07-.74,97.57-.81c35.66-.08,71.24.51,106.9.29,95.19-.57,190.37-2.05,285.51-5q33.25-1,66.54-2c18.23-.49,36.48-.85,54.71-1.32,15-.39,30.07-.86,45.1-1.28,27-.76,54-1.19,80.87-2.32,43.46-1.83,86.8-4.16,130.22-6.2q71.07-3.33,142.19-6.48c28.43-1.22,57-2,85.43-3.2,15.77-.67,31.47-1.73,47.12-2.76,7.7-.51,12.36-2.27,14.9-4.73s-1.82-3.88-6.18-5.37c-1-.33-1.08-.92-1.6-1.41,10.59-9.31,3.31-18-6.17-26.91,3.87-.37,6.76-.85,9.65-.89,14.29-.21,28.59-.38,42.86-.41,30.85-.06,61.68.06,92.54-.09,9.4-.05,18.86-.74,28.3-1.13,8.27-3.81,20.16-2.69,30.71-2.58,24.5.25,48.93.83,73.38,1.31,14.9.29,30.18-.75,44.75.83,2.7.29,6.24-.16,9.4-.26l9.09-.29V317c-4.74-.82-8.77-1.47-12.4-2.3-15.34-3.51-17.33-8-6-13.35,3.15-1.49,6.79-2.86,9.66-4.06C1906.72,290.69,1906.2,289.93,1920,284.05Z"/></g></g></svg>