<svg xmlns="http://www.w3.org/2000/svg" viewBox="0 0 861.27 615.1"><defs><style>.cls-1{opacity:0.74;}</style></defs><g id="Camada_2" data-name="Camada 2"><g id="content"><path class="cls-1" d="M6.33,247.16c3.28-3.67,4.54-7.19,3.53-11.43-1.34-5.62.91-10.71,1.77-16,.2-1.25,1.25-2.36,2-3.42,1-1.34,2.77-2.42,3-3.86.59-4.16,3-6.08,5.61-8a12.49,12.49,0,0,0,2.05-2.17c3.07-3.7,3.21-7.44.63-11.6s-4.88-8.13-7.58-12.65c6.11-3.59,12.23-4,18-4.69,10.07-1.26,17.09-8.64,26-15l-5.74-2.32c8.44-2.09,9.49-4.57,5.82-13.6-2.7-6.62-1.75-9,4.68-11.69a20.49,20.49,0,0,0,2.63-1.66c.14-4.21.47-8.45.34-12.68-.08-2.81.68-4.8,3.39-6.07-1.89-2.11-3.55-3.27-4.24-5-.55-1.35,0-3.42.24-5.11.57-3.4-2.39-3.78-3.45-6,.28-2.33.58-4.81.89-7.4,1-.94,2-1.8,2.86-2.74,6-6.25,6.17-7.41,1.92-17.23,1-1.32,2.46-2.68,3.21-4.47s.78-4,1.28-6.93L81.55,52c.53-3,1.16-6.5,1.75-10a57,57,0,0,1,1-6.21c3-10.38,3-10.37,10.44-16.21-1.92-3.73-5.21,1.56-7.46-1.94.42-.58.83-1.69,1.39-1.81,3-.66,6-1.55,9-1.49,15.9.32,31.63-1.59,47.42-3.7,19.4-2.6,38.89-4.28,58.36-6,14-1.25,28-2.16,42-2.85C259.22,1.09,273,.91,286.7.49,291.87.34,297,0,302.21,0c13.44.07,26.88-.07,40.3.56,18.59.87,37.16,2.48,55.74,3.56,10.07.59,20.14.81,30.22,1.07,20.14.53,40.29.88,60.44,1.5,16.18.49,32.35,1.2,48.53,2,17.08.79,34.16,1.9,51.25,2.58a670.34,670.34,0,0,1,95.6,11.2c20.81,3.87,41.69,7.11,62.53,10.72,5.44.94,10.81,2.36,16.26,3.24,11.48,1.85,23,3.64,34.5,5.13a32.34,32.34,0,0,1,10.37,3c5.24,2.54,11.26,2.9,17,4,4.79.9,9.62,1.48,14.18,2.16,2.18,3.64,1.09,6.79.56,9.92a13.84,13.84,0,0,0,1.71,10.23,19,19,0,0,1,2.87,8.88c.12,5.19-3,9.34-4.92,13.74-1,2.3-3.52,2.57-5.78,2.31-3.94-.47-7.89-.94-11.84-1.26a12.49,12.49,0,0,0-4.52.39,3.35,3.35,0,0,0-1.68,2.27,4.05,4.05,0,0,0,.54,3c2.78,2.89,5.87,5,9.76,5.3,4.51.4,9,1.34,13.48,2.06.15,4.18-.29,7.79.52,11,1,4.09-2,6.54-.84,11-6.23-1-11.31-1.78-16.4-2.53-4.84-.72-9.68-1.55-14.55-2-5.17-.47-10.37-.77-15.56-.75-4.69,0-9.48-1-15.09.64,2.38,3,4.42,3,6.45,3.07,7.31.43,14.62.91,21.93,1.38a6.58,6.58,0,0,1,2.72.31c7.91,4.4,16.67,4,24.93,6.32a53.46,53.46,0,0,1,10.26,4.35c1.11.59,1.7,2.55,2.82,4.34l-6.09,3a4.78,4.78,0,0,0,1.87,5.82c2.22,1.73,4.53,3.3,7.2,5.22-1.3,1.45-2,2.79-3.05,3.3-3.54,1.73-4.73,5.52-5.84,9.23-.78,2.58.18,5.77-2.31,7.87-.56.47-.29,2.74,0,4.08.56,2.79,1.36,5.52,2.22,8.87l-5.66-.4c-6.09-.48-12.17-1-18.25-1.42-2.69-.17-3.78,1.83-3.87,5.39,9.37,4.83,20.2,3.6,29.93,8.17v8.11c1.85.9,3.55,1.61,5.16,2.55a44,44,0,0,1,3.76,2.71,7.31,7.31,0,0,1-.55,2.4c-4.44,5.59-3.76,11.75.11,16.56,3.54,4.4,3.18,8.11.6,12.77,4.48,4.6,7.15,10.28,8.83,16.44.9,3.27.53,7,.76,11.1-2.85.81-5.18,2.13-7.45,2-6.37-.39-12.72-1.56-19.09-2.08-7-.56-14-.8-21-1-1.15,0-2.31.6-3.65,1V287l-3.48,2.77c.63.9.92,1.73,1.38,1.89,1.45.53,3,.68,4.44,1.22,2.82,1.05,4.43,3.49,5.67,7.49l-13.45,3.16c4.53,4.18,9.5,6.18,12.51,11.11s6.15,9.88,9.24,14.84c-2.6,3.07-3.7,6.57-1.83,10.43a8.53,8.53,0,0,1,.72,6c-.43,2.29.25,4.93.65,7.37.29,1.76,1,3.41,1.38,5.15,1.07,4.81-.18,7-4.4,6.7-5-.32-9.6.46-13.91,3.9-5.1,4.08-8,9.89-9.94,16.48-.55,1.9-.7,4.75.13,6.3,4.24,8,4.09,17.13,5.45,25.64-7.76,11.21-7.76,11.21-5.84,21.76-1.11,1.6-2.52,3.44-3.74,5.44-4.39,7.18-3.65,13.54,2.23,18.8,1.69,1.51,3.61,2.66,6,4.37,1,2.92,2.26,6.55,3.68,10.68-3.85,5.57-3.94,12.14-2.38,19.45,2.55,3.26,6.37,5.4,8,10.8,1.31,4.41,1.75,8,.34,12.19-1.7,5.13-.59,8.49,3.3,10.43a35,35,0,0,0,4.41,1.45c3.66,1.28,4.53,4.32,3.59,9.19-6.14.13-12.41.25-18.67.42-2.43.07-4.86.23-7.29.35-1.22.07-2.58.62-3.62.14-5.6-2.55-11.48-1.45-17.21-2.2-9.41-1.23-18.8-2.62-28.23-3.53-4.06-.4-8.62-2.24-11.83,2.89-3.63.33-7.28,1.07-10.89.91-11.88-.5-23.74-1.39-35.61-2-5.49-.29-11-.38-16.49-.43-1.11,0-2.23.59-3.72,1,3.59,12.65,6.34,25,2.2,37.73a6.53,6.53,0,0,0,.61,2c1.67,2.19,3.34,4.25,2.34,7.65s-2.8,5.73-5.76,6.26c-6,1.08-12.08,2.19-18.15,2.76-11,1-21.94,1.44-32.89,2.48-18.26,1.75-36.5,3.74-54.75,5.74-16.71,1.84-33.4,4.08-50.14,5.63-10.34,1-20.75.93-31.12,1.35-5.79.24-11.57.55-17.36.74-7,.24-14,.31-21.06.58q-12.81.5-25.62,1.2c-36.62,2-73.25,1.82-109.87.4-13.72-.53-27.41-2.18-41.13-2.9-12.5-.66-25-.67-37.54-1.13s-25,.31-37.43.22c-7.3-.06-14.6-.21-21.91-.07-6.73.14-13.43.17-20.05,1.94a14,14,0,0,1-3.49,0,19.44,19.44,0,0,1-2.3-11.66c.54-4.83-1.09-6.3-5.4-6-1.83.13-3.65.67-5.46.58a20.4,20.4,0,0,1-4.5-1.33c-.1-1.27-.49-2.41-.21-3.22,1.28-3.69.35-6.34-2.38-8.31-1.79-1.28-3.59-2.51-5.87-4.1,2.09-3.87,4.94-6.67,4.8-11.51-.19-6.55-.15-13-2.17-19.28-1.44-4.45-4-7.26-8-8.06-3.3-.67-6.64-1.1-10.61-1.75a72.27,72.27,0,0,0-2-9.07c-.88-2.47-2.51-4.57-3.82-6.84.33-.56.69-1.67,1-1.65,6,.36,7.42-6.54,11-9.89,1.16-1.09,1.27-4.8.85-7-1.2-6.43-4.61-10.93-10.46-13.3,0-3.91.48-7.9-.14-11.63-.57-3.46-2.3-6.66-3.17-9,.32-5.56.57-10.18.86-14.79.23-3.6.56-7.19.79-10.79a14.75,14.75,0,0,1,3.26-8.67c1.85-2.33,3.09-5.37,4.44-8.2,1.23-2.58,2.49-4.83,5.11-5.81,3.17-1.17,3.83-4.36,3.55-7.89-.26-3.14-.64-6.27-1-10.06-6-2.7-12.41-4.81-19.16-4.36-6.09.41-12.15,1.34-18.23,1.94-4.14.4-8.26,1.93-12-2.64-1.28-1.58-4.67-1.45-7-1-5.92,1.07-10.1-4-15.23-5.63-2.77-.9-3.62-5.2-3.57-8.31a28,28,0,0,0-5.82-17.73A13.45,13.45,0,0,1,32.36,355c.94-6.73-1.31-12.88-2.44-19.21A18.18,18.18,0,0,0,27.4,330c-2-3.43-4.49-3.91-7.94-1.73-1.06.67-2,2.21-3,2.2a5.76,5.76,0,0,1-3.89-2c-.45-.53,0-2.82.6-3.79.88-1.4,2.36-2.25,3.47-3.48a42.93,42.93,0,0,0,2.66-3.69c-1.21-2.83-2.42-5.64-3.64-8.48,2.61-2.8,3.66-6,3.13-10.44a52.76,52.76,0,0,1,.15-14c1.18-7.86.93-15.16-3.08-21.87a6.1,6.1,0,0,1-.75-2C14.06,255.22,11.28,251.09,6.33,247.16ZM3.07,324.35C1.43,324,0,326.53,0,328.86s2,4.58,3.6,3.74C5,331.86,6,330,7.81,328,5.78,326.36,4.53,324.7,3.07,324.35Zm828.38,19.46-.74-.69c0,.22,0,.43-.07.65Z"/></g></g></svg>