<svg xmlns="http://www.w3.org/2000/svg" viewBox="0 0 1090.8 259.08"><defs><style>.cls-1{fill:#ef8022;}</style></defs><g id="Camada_2" data-name="Camada 2"><g id="content"><path class="cls-1" d="M1073.62,126.31l6.89,1.68c-.58.67-.76,1.23-1.17,1.3-4.25.73-8.54,1.38-13.35,2.13-.69,1.25-1.45,2.65-2.38,4.32a29.26,29.26,0,0,1-4,.34c-12.15-.41-24.29-.88-36.44-1.32-1.84-.07-3.7-.16-5.53-.06a7.44,7.44,0,0,0-5.78,2.77c-1.22,1.49,0,3.37,2.69,3.56,5.47.4,11,.59,16.5.86,2.19.11,4.54.06,5.52,2.15l-13.22,1.68,5.45,4.55-17,.73c-1.78,2.77,2.12,4.13,2.67,5.89,3.45,1.94,9.17.26,12.66,3.25-7.48,1.22-14.06,2.43-21,2.35-18.45-.21-36.89-.54-55.34-.73q-22.68-.21-45.39-.18c-2.81,0-5.63.37-8.51.57.37,1.91,2.63,1.68,4.24,1.74,13.61.53,27.23,1,40.84,1.49q27.57,1.08,55.12,2.25c8,.34,16,.25,23.8,2.09,4.57,1.09,10.14.8,15.25,1.15,2.48.16,4.95.37,7.73.58.18,2.3-3.15,3.13-4.34,4.6a36.27,36.27,0,0,1-4.07,3.92c-.82.73-1.89,1.37-2.75,2.09-4.17,3.51-3.69,5.44,2,8.3.81.4,1.77.69,2.61,1-2.11,5.78-2.11,5.78,2.58,15.21,5.5,1.23,13.21,1.46,12.34,7.3-5.72,0-11.51-.07-17.3-.09-4.41,0-8.66-.16-12.58,1.85-1.63.83-4.89.8-7.38.78-28.44-.22-56.86-.61-85.3-.72-11.08,0-22.19.52-33.28.8-3,.07-5.93.27-8.58,2.13,2,.48,3.74,1.24,5.6,1.31,9.57.36,19.15.59,28.74.77,12.15.22,24.31.35,36.34.51l3.78,3.47c7.61-.51,14.49,1.58,22.07,1.56,8.1,0,16.17.71,24.24,1.12,7.71.4,15.4.82,22.92,1.22l8.57,6.94c-2.91.69-7.2.92-8.66,2.22-3.72,3.3-8.75,2.7-13.69,2.78-14,.25-28-.3-41.85-1.39-2.9-.23-5.9-.07-8.86-.06-8.49,0-17,.15-25.46.08-18.84-.15-37.66-.4-56.5-.6-5.16-.06-10.33-.12-15.5-.13-3,0-6.07-.31-8.83.17-14.19,2.43-28.63,1.38-42.93,2-18.08.74-36.19.94-54.29,1.48a30.17,30.17,0,0,0-6.16,1.17c-2,.5-3.87,1.4-5.95,1.7-3,.44-6.29.65-5.7-2.36-5.37.4-10.16-.14-14,2.37-.92.6-3.51.59-5.22.46-10.9-.84-21.83.12-32.73.15-17.76.05-35.33,2.28-53.07,2.2-3.67,0-7.36.37-11,.53-2.59.12-5.46.61-7.71.15-7.9-1.58-15.11-.28-22.54,1.4A68.24,68.24,0,0,1,588.57,251c-19.84,1.12-39.64,2.75-59.58,2.53-7.91,1.62-15.84.78-23.84.72-6.21-.05-12.47.83-18.75.29a11.85,11.85,0,0,0-4.3.5c-5.3,1.75-10.67,1.49-16.15.76-1.78-.23-4-.77-5.38-.36-7.73,2.35-15.91,1-23.81,1.51-10.26.67-20.65.39-31,.51l-54.3.6c-15.89.16-31.79.41-47.67.39-8.05,0-15.95-.69-24.15.27-5.69.67-11.75.18-17.63.08-12.15-.21-24.29-.58-36.44-.73-10.17-.13-20.3-1.06-30.56,0-2.5.26-5.71.45-7.6-.24-5.1-1.87-10.42-1.41-15.94-1.26-3.22.09-6.56-1-9.67-.76-11.26,1-21.74-1.63-32.76-1.52-5.9.06-11.84-.23-17.69.13a53.79,53.79,0,0,1-15.17-1c-9.43-2.1-19.46-2.46-29.36-2-8.43.34-15.88-1-23.48-2.35-2.42-.44-4.6-1.3-6.94-1.91-6-1.59-6-1.58-13.48.38-8.23-1.72-11.69-6-15-10.29-.81-1-.22-2.5-.18-3.77.06-1.7.93-3.41-1.06-5-.56-.45-.13-1.69.58-2.27,1.21-1,1.09-1.82,1-3-.31-4.29,3.14-6.18,10.65-6.31,1.69,0,3.39-.2,4.95-.29.85-2.36-2.13-3.42-3.29-5.59,1.47-1.93,3.28-4.28,5.1-6.66l-7.92-10.19c2.78-4.2,3.64-8.69,9.92-11.49-3.76-7.8-3.76-7.8-10.24-10.15l7-3.71-4.59-3.55,12.37-4.27c-.31-1.44-.87-2.64-.74-3.82A16.66,16.66,0,0,1,33,153.2c-7.21-2.32-16-2.37-22.29-6.63-2.38-4-1.85-8.76.66-13.64.68-1.32,1.07-2.46,3.2-3.21a5.39,5.39,0,0,0,1.47-.95c1.46-1.13-2.52-2.48.32-3.4,2.36-.76,1.76-1.74,1.46-2.72a6.28,6.28,0,0,0-1.45-2.39c-1.3-1.42-1.76-2.71,0-4.23,2.38-2,1.16-4.31.3-6.3-.54-1.26-3.12-2.19-5.06-3.45l2.22-23.14L5.29,80.59c.35-.83.26-1.72.91-2,3-1.25,6.23-2.34,9.72-3.61,1-1.72-2.11-2.7-3.34-4.52a34.5,34.5,0,0,0,3.81-2.75c3.42-3.26,3-4.19-3.17-7,1.25-1,2.25-2.61,3.81-2.85,4.75-.73,3.42-3,4.65-4.88L14,47.29c2.42-2.83,2.35-6,2-9.22a18.74,18.74,0,0,1,1.78-11c1.48-2.83,1.3-5.93,2-9.63L26,14.7l-.71-5.06a11.51,11.51,0,0,1,2.85-.79c10.33,0,20.65,0,31,0,2.18,0,4.5.46,6.5.13,12.41-2.06,24.49.55,36.8-.74l0,1.31L86.3,10c7.83,1.46,15.14,3.86,23.67,3a27.83,27.83,0,0,1,3.91.29,70.87,70.87,0,0,0,7.56.23,5.25,5.25,0,0,0,3.22-1.43c1.1-1.43-1.37-1.69-2.92-2.34,1.9-1.19,4.35-2.28,3-4.5l-5.08-.56a6.2,6.2,0,0,1,1.54-.54c4.07-.13,8.14-.15,12.2-.34,3.69-.16,7.58-.1,11-.83,7.15-1.53,14.49-1.62,21.8-2.26,10.38-.9,20.65-.74,31-.61Q237,.62,276.87,1c25.1.24,50.19.54,75.29.61,32.88.1,65.77,0,98.65,0,18.85,0,37.7-.11,56.55-.12,10.33,0,20.7-.11,31,.27,6.9.26,13.68.24,20.59-.1,4.64-.23,9.34.63,14,.63s9.57-.56,14.36-.66a45.1,45.1,0,0,1,7.56.59,63.56,63.56,0,0,0,17.37.05,115.61,115.61,0,0,1,20.94-.52c3.56.21,7,1.07,11.48,1.8a20.51,20.51,0,0,1,10.08-2.14c17.67.36,35.37.52,53.06.72,11.44.12,22.88.24,34.32.29q26.6.13,53.2.17,27.7.07,55.4.1c17.72,0,35.44.06,53.16,0,15.49,0,31-.36,46.49-.33,9.18,0,18.35.45,27.52.75q17.08.56,34.16,1.21c5.48.21,10.92.55,16.21.83,1.19,2.28-1.61,3-3,4.18-2.63,2.17-2,3.46,2.15,4.48,2,.48,4.13.79,6.73,1.28l.29,10.46c6.5,1.07,9.23,4.72,14.72,6.36.89.26,2.18.87,2.11,1.28-.55,3.71,4.87,5,8,7.26,1.12.81,2.29,1.61,3.61,2.53l-6.79,3.12c-.08,1.36-.17,2.85-.28,4.62l-27.09,4.75c1.59,4.71,2.21,5.19,8.47,5.68,10.91.85,21.86,1.6,32.19,2.35,2.77,1.81,4.77,3.68,7.65,4.83,2.43,1,5.87,1.07,9,1.58-.66.77-.83,1.33-1.27,1.43-2.76.58-5.85.77-7.28,2.68a5.63,5.63,0,0,0-.17,7c1.3,1.91,3.23,4.28,6,5,5.3,1.45,5.83,4.12,7.18,6.73a5.51,5.51,0,0,1,.31,1.33c-4.46,3.68-4,8-5.13,12.19a3.11,3.11,0,0,1-1,.34c-6.63,0-13.37-.48-19.87.13s-12.94,1.73-19.68,1.36a59.47,59.47,0,0,0-6.56.52c-3.68.21-7.37.47-11,.51-12.18.12-24.36.15-36.77,1,1.27.18,2.52.43,3.81.53,4.93.36,4.93.35,7.25,3.67l11.08.54,3.58,3.56,53.41,3.33C1071.22,123.35,1072.43,124.84,1073.62,126.31ZM110.44,9.64a10,10,0,0,0,1.36.49c.16,0,.5-.21.76-.32l-1.34-.54ZM.18,220l-.18.36.79-.12Z"/></g></g></svg>