<svg xmlns="http://www.w3.org/2000/svg" viewBox="0 0 959.8 1061.29"><defs><style>.cls-1{fill:#002c50;stroke:#002c50;stroke-miterlimit:10;stroke-width:24px;}</style></defs><g id="Camada_2" data-name="Camada 2"><g id="Camada_2-2" data-name="Camada 2"><path class="cls-1" d="M947.8,374.18V131.62S840.67,12,584,12,183.28,151.27,183.28,151.27,7.08,312.62,12.11,530.64,144.87,877.37,191,914.82s220.29,134.47,400.68,134.47S947.8,931.63,947.8,931.63V777.74S802.3,906.66,671.67,906.66,422.92,805.81,422.92,805.81l-191.13,1s-49-33.61-36.5-50.9,20.17-29.77,20.17-29.77S195.29,705.93,187.61,704s8.64-51.87,8.64-51.87l-1.92-16.33H136.87s4.82-79,36.62-119.49-1-95.41-1-95.41,34.69-134,90.59-186S400,125.07,503.07,122.18s146.48,9.63,146.48,9.63H751.7s35.65-40.47,58.78-24.09,72.28,107,76.13,132,3.86,35.66,3.86,35.66-86.74-60.71-136.85-40.47S900.1,371.77,900.1,371.77Z"/></g></g></svg>