<svg xmlns="http://www.w3.org/2000/svg" viewBox="0 0 1920 128.29"><defs><style>.cls-1{fill:#f6eae0;}</style></defs><g id="Camada_2" data-name="Camada 2"><g id="background"><path class="cls-1" d="M1920,12.41V128.29H0V69.91c9.85.18,12.58,4.87,15.89-5.24C19.8,64.6,13.2,47.14,42.8,39.26c2-4.6,27.4,1.58,35.14-.55,11.52,22.15,29.8,25,34.4,5.93,13.31-1.9,32.85-7.4,37.25,13.36,23-3.19,9.35-9,29.32.67,4,32.91,16.43-18.71,38.3,29,10.4,39.69,25.21-23.17,41,3.82,10.59,32,15.81,29,26.84,5.47,15.22,42.43,20.23,13.78,37.62,1.3,8.73,31.44,15.49,29.75,26.75,2.7,6.31-33.46,7.76-6.63,15.14-10.2C375.71,73,390.1,127,400,100.71c10.42,40.77,19.71-31.33,30.9,11.17,13.46-18,26.7-25.22,39.83-11.59,13.13,3,26.14-3.9,39.14-17.35,20.67-8.1,44.13,27.79,65.15-2.27-2.54,1.64-18.32-21.29-23.86-40.56,2.78-7.82,29.13-30,40.48-26.78,10.44-8.67,21.35-19.72,31.78-.21,13.49-18.5,26.78,18,40.11,6,13.33,4.24,26.71,11.72,40.38-.56,20.51,43.85,45.66-33,66.76-5.41C782.14-1.38,792.08,65.87,804,26.84c16.24,18,33.46,1.12,49.86-.34,17.52,1.81,35,5.51,52.57,0,18.43,18,34.88-15.18,52.43-6.68,12.46,4.56,24.57-6.59,37.14-.79,5.1-4.18,10.2-14.61,15.31-5.22,4.89-16.27,8.5-12.65,10.84-12.41A64.12,64.12,0,0,1,1035.57,0c8.32,0,17,1.55,23.93,5.35,8.86,8.53,14.37-14.14,22.71,8.1,6.69-3.8,14-12.08,20.58,7.8,12.92,13.4,22.63,8.17,33.44,31.63,12.83,30.53,30.94,9.08,46.2,12.75,15.61,17.74,33.54-4.81,50,6.65,15.26-5.47,27.59-5.51,43.27-13.3,17-12.5,34.17-4.62,51.17.12,11,25.32,22,15.07,33,0,6.49-14.65,14.44-5.47,20.74-.5,8.67,1.65,13.07,25.29,21,12.42,16.06,47.64,37.81,25.85,54.72,1.11,12.34,16.25,24.68-9.8,37,0,14.92-5.25,21.58-13.82,35.27-10.14,14.4,1.63,29.45,14.18,44.1-5,16.5-8.13,22.91-6.81,40.83-30.62,4.6-.46,13.88-3.43,18.28.75,2.91,13.22,5.39,27,7.43,15.62,13,13,21.82,5.61,39.9,17.44,14.72-4.09,23.91,1.53,45.12-.56,18.07-10.59,47.19,30,37.56.08-1.63-6.69,4-17.78,37.52-1.46,5.36-3.62,12.06-13.09,8.12-13.67-5.32-22.6-6.9-19.16,17.6-18.73,17.86,11.61,16.5-16.31,22.86.62,20.11-9.4,38.74-8.33,49-.05C1906.79,20.73,1913.65,16,1920,12.41Z"/></g></g></svg>