<svg id="Camada_1" data-name="Camada 1" xmlns="http://www.w3.org/2000/svg" viewBox="0 0 842.17 53.26"><defs><style>.cls-1{fill:#f6eae0;}</style></defs><path class="cls-1" d="M0,321.4c2.79-1.55,5.79-3.65,10.11-6.16,4.53,3.63,12.7,4.11,21.52,0,2.79,7.43,2.19-4.82,10,.28,10.74.18,10.05,1.69,7.72-8.22-1.73-.25,1.21-4.41,3.56-6,14.71,7.16,17.17,2.3,16.46-.64-4.22-13.13,8.55,4.68,16.47,0,9.3-.91,13.34,1.56,19.79-.24,7.93,5.19,11.78,1.95,17.5,7.65.9-5,2,1.06,3.26,6.85,1.93,1.84,6,.53,8,.33,7.86-10.44,10.67-9.86,17.91-13.43,6.43-8.41,13-2.9,19.35-2.18,6,1.61,8.92-2.15,15.46-4.45,5.42,4.3,10.83-7.13,16.24,0,7.42-10.86,17-20.41,24,.49,3.49-5.65,5.42,4.72,9.22,5.44,2.77,2.18,6.26,6.21,9.1-.21,4.82-6.61,9.65-11.11,14.47,0,7.45,2.08,15,5.54,22.44.06,6.88-3.42,12.29-3.44,19-5.84,7.2,5,15.07-4.86,21.91,2.92,6.7,1.61,14.64-7.8,20.27,5.59,4.74,10.29,9,8,14.66,13.87,2.89,8.73,6.1,5.09,9,3.42,3.66,9.76,6.08-.18,10,3.56,4.74,2.61,11.48,2.8,16.38,1.74,1,.11,2.61,1.7,4.75-5.44,2.24,4.12,4.48-.45,6.72-2.29,5.52,2.54,10.82-2.35,16.29-.35,7.69,3.73,14.91-10.84,23-2.93,7.68-2.42,15.37-.8,23.05,0,7.2-.64,14.75-8.05,21.88-.15,5.23-17.12,9.59,12.38,14.61,6,9.26,12.1,20.28-21.6,29.28-2.37,6-5.39,11.87-2.11,17.71-.25,5.85-5.29,11.68,10.74,17.59,2.62,4.58,8.56,9.37,3.71,13.94-.09,5,1.43,16.54-8.32,17.76-11.75-2.43-8.45-9.36-18.52-10.47-17.79,9.23-13.18,19.51,2.56,28.58-1,5.7-5.9,11.41-8.94,17.17-7.61,5.75,6,11.57,2.82,17.47-5.09,4.91,18.64,9-13,13.55,4.9,4.36-11.51,10.68,12.14,15.54,4.38,3.24-1.57,3.88,10.2,6.65-4.48,2.27-5.47,4.13-8.57,5.84-9H0Z" transform="translate(0 -273.59)"/><path class="cls-1" d="M695.5,273.59c1.71.41,3.32,3.68,5.12,10.17,7.63-5.48,9.83-18.05,16.5.57,4.84-10.33,7.13-11.64,11.77,2.4,7,11.83,13.45-15.74,18,1.67,9.59,20.92,15-1.72,16.8,12.71,8.76,4.22,2.78,1.7,12.86.3,1.93,9.1,10.5,6.69,16.34,5.86,2-8.39,10-7.12,15.09,2.6,3.39-.94,14.53,1.77,15.41-.24,13-3.46,10.09-11.12,11.8-11.15,1.46-4.43,2.65-2.38,7-2.3V273.59Z" transform="translate(0 -273.59)"/></svg>