<svg xmlns="http://www.w3.org/2000/svg" viewBox="0 0 536.59 143.19"><defs><style>.cls-1{fill:#ef8022;}.cls-2{fill:#a53a1d;}</style></defs><g id="Camada_2" data-name="Camada 2"><g id="content"><path class="cls-1" d="M529.24,86.29c-8-6.25-16.2-12.21-24.7-17.77S487.17,58,478.17,53.24s-18.26-8.93-27.63-12.87q-7-2.92-14.19-5.59c-4.75-1.79-9.59-3.36-14.43-4.92l-5.05-1.63-2.76,4.47c-6.32,10.22-12.28,20.66-17.68,31.39s-10.2,21.76-14.53,33l-2.47,6.38,6.33,1.44a323.67,323.67,0,0,1,49.64,15.55l12.09,5q6,2.56,11.95,5.4c3.95,1.88,7.86,3.86,11.74,5.91s7.79,4.07,11.65,6.23l.47.26.12-.52c1.37-6.07,2.82-12.12,4-18.2L490.84,108c2.74-1.12,5.49-2.21,8.26-3.25,3.17-1.24,6.34-2.48,9.54-3.65q9.57-3.51,19.33-6.43l8.62-2.57Z"/><path class="cls-1" d="M154.69,97c-4.33-11.19-9.22-22.17-14.53-32.95S128.8,42.92,122.48,32.7l-2.76-4.47-5,1.63c-4.84,1.56-9.68,3.13-14.43,4.92s-9.5,3.64-14.19,5.59c-9.37,3.94-18.66,8.1-27.64,12.87S40.62,63.08,32.05,68.52,15.33,80,7.35,86.29L0,92.06l8.62,2.57q9.75,2.93,19.33,6.43c3.2,1.17,6.37,2.41,9.54,3.65,2.76,1,5.51,2.13,8.26,3.25l3.4,16.51c1.2,6.08,2.65,12.13,4,18.2l.12.52.47-.26c3.85-2.16,7.76-4.21,11.65-6.23s7.79-4,11.74-5.91,7.93-3.69,11.95-5.4l12.09-5a323.67,323.67,0,0,1,49.64-15.55l6.33-1.44Z"/><path class="cls-2" d="M61.16,69.63c3.59-1.52,7.24-2.89,10.68-4.06s6.68-2.17,9.48-2.87,5.13-1.28,6.78-1.61l2.57-.55-1.88-7.42-2.64.9c-1.69.56-4.07,1.4-6.87,2.55s-6,2.54-9.43,4.16-6.93,3.48-10.39,5.47a177.67,177.67,0,0,0-18.26,12c-4.77,3.54-7.71,6.17-7.71,6.17s3.24-2.25,8.37-5.17A175.69,175.69,0,0,1,61.16,69.63Z"/><path class="cls-2" d="M68,77.6c3.59-1.52,7.24-2.87,10.68-4s6.67-2.15,9.47-2.85,5.13-1.28,6.77-1.6l2.58-.55-1.89-7.42-2.64.9c-1.68.56-4.06,1.39-6.86,2.54s-6,2.52-9.41,4.13-6.93,3.46-10.38,5.44A177.07,177.07,0,0,0,48,86c-4.78,3.51-7.73,6.13-7.73,6.13s3.25-2.24,8.38-5.13A177.7,177.7,0,0,1,68,77.6Z"/><path class="cls-2" d="M74.78,85.56c3.59-1.5,7.24-2.84,10.68-4s6.66-2.14,9.46-2.83,5.13-1.27,6.77-1.59l2.57-.55-1.89-7.43-2.63.91c-1.68.55-4.06,1.39-6.85,2.53s-6,2.51-9.4,4.11-6.93,3.43-10.38,5.4A181,181,0,0,0,54.81,93.9C50,97.39,47.07,100,47.07,100s3.26-2.21,8.39-5.07A178.63,178.63,0,0,1,74.78,85.56Z"/><path class="cls-2" d="M81.6,93.52c3.58-1.48,7.23-2.81,10.66-4s6.67-2.12,9.47-2.81,5.11-1.26,6.75-1.59l2.57-.54-1.89-7.43-2.62.9c-1.68.56-4.05,1.39-6.84,2.52s-6,2.5-9.39,4.09-6.92,3.41-10.38,5.36a186,186,0,0,0-18.31,11.7c-4.79,3.46-7.76,6-7.76,6s3.27-2.19,8.41-5A180.68,180.68,0,0,1,81.6,93.52Z"/><path class="cls-2" d="M88.41,101.49C92,100,95.64,98.7,99.07,97.57s6.66-2.11,9.46-2.79,5.11-1.25,6.75-1.58l2.56-.54L116,85.23l-2.62.9c-1.67.55-4,1.38-6.82,2.51s-6,2.49-9.38,4.07S90.21,96.1,86.75,98a188.18,188.18,0,0,0-18.32,11.61c-4.8,3.44-7.78,6-7.78,6s3.27-2.17,8.42-5A183.89,183.89,0,0,1,88.41,101.49Z"/><path class="cls-2" d="M120.13,94.16c-1.67.55-4,1.37-6.81,2.5s-6,2.47-9.37,4S97,104.07,93.58,106a186.35,186.35,0,0,0-18.34,11.52c-4.8,3.41-7.79,5.94-7.79,5.94s3.27-2.14,8.42-4.92a183.92,183.92,0,0,1,19.35-9.08c3.59-1.46,7.23-2.76,10.66-3.88s6.65-2.09,9.45-2.77,5.11-1.25,6.74-1.57l2.56-.55-1.88-7.42Z"/><path class="cls-2" d="M451.61,62.69a183.41,183.41,0,0,1,20.51,6.63A210,210,0,0,1,492,78.22c5.3,2.71,8.7,4.79,8.7,4.79s-3.13-2.48-8.09-5.82a209.41,209.41,0,0,0-18.84-11.35,187.62,187.62,0,0,0-20.12-9.3c-2.83-1.13-5.23-2-6.92-2.52l-2.66-.9-1.89,7.42,2.61.55C446.41,61.42,448.78,61.94,451.61,62.69Z"/><path class="cls-2" d="M466.58,73.67a197.59,197.59,0,0,0-20.29-9.29c-2.85-1.12-5.27-2-7-2.52L436.65,61l-1.89,7.43,2.63.55c1.68.33,4.07.86,6.92,1.61A192.56,192.56,0,0,1,465,77.15c7.42,2.82,14.7,6.12,20,8.81s8.81,4.72,8.81,4.72-3.17-2.44-8.21-5.75A217.13,217.13,0,0,0,466.58,73.67Z"/><path class="cls-2" d="M459.44,81.49A205.51,205.51,0,0,0,439,72.23c-2.87-1.13-5.3-2-7-2.53l-2.69-.91-1.88,7.42,2.64.56c1.7.33,4.11.86,7,1.61A200.53,200.53,0,0,1,457.88,85c7.5,2.79,14.84,6.06,20.26,8.72s8.92,4.65,8.92,4.65-3.23-2.41-8.33-5.69S466.67,85.22,459.44,81.49Z"/><path class="cls-2" d="M452.3,89.31a215.56,215.56,0,0,0-20.63-9.24c-2.89-1.12-5.33-2-7.06-2.53l-2.71-.92L420,84.05l2.67.56c1.71.33,4.13.87,7,1.62a211,211,0,0,1,21.05,6.59c7.57,2.78,15,6,20.47,8.63s9,4.59,9,4.59-3.29-2.39-8.46-5.63S459.6,93,452.3,89.31Z"/><path class="cls-2" d="M445.16,97.14a224.87,224.87,0,0,0-20.8-9.22c-2.91-1.13-5.37-2-7.11-2.55l-2.73-.91-1.88,7.42,2.69.57c1.72.34,4.16.88,7.08,1.63a220.21,220.21,0,0,1,21.23,6.57c7.64,2.76,15.14,6,20.68,8.55s9.16,4.51,9.16,4.51-3.35-2.35-8.59-5.57S452.53,100.82,445.16,97.14Z"/><path class="cls-2" d="M438,105c-7.43-3.7-15.09-7-21-9.2-2.93-1.12-5.4-2-7.16-2.55l-2.74-.92-1.89,7.43,2.71.57c1.74.34,4.2.88,7.14,1.64,5.9,1.46,13.71,3.78,21.41,6.55s15.29,5.91,20.9,8.46,9.27,4.45,9.27,4.45-3.41-2.32-8.72-5.51S445.46,108.63,438,105Z"/><path class="cls-1" d="M452.9,19.37l-22.81-4.31-22.91-3.78L384.18,8,361.1,5.34,338,3.19,314.77,1.58,291.55.51,268.29,0,245,0,221.77.62,198.53,1.75,175.31,3.43,152.13,5.65,129,8.42l-23,3.32c-7.66,1.3-15.33,2.51-23,3.92h0a6.12,6.12,0,0,0-4.86,7.17v0L84.77,57.8l3.38,17.45,3.62,17.42,0,.09a5.8,5.8,0,0,0,6.76,4.51l21-4,21.07-3.47,21.15-3L183,84.4l21.28-2L225.56,81l21.36-1,21.37-.47,21.39,0,21.39.55,21.37,1,21.35,1.55,21.31,2.05,21.26,2.56,21.17,3.05,21.18,3.57h0A2.4,2.4,0,0,0,441.48,92L454.8,22.16h0A2.39,2.39,0,0,0,452.9,19.37Z"/><polygon class="cls-1" points="386.33 86.11 379.43 103.42 439.86 93.88 386.33 86.11"/><polygon class="cls-1" points="151.2 88.35 157.16 103.42 96.37 97.27 151.2 88.35"/></g></g></svg>