<svg xmlns="http://www.w3.org/2000/svg" viewBox="0 0 1920 169.59"><defs><style>.cls-1{fill:#100405;}</style></defs><g id="Camada_2" data-name="Camada 2"><g id="background"><path class="cls-1" d="M1920,0V169.17l-2.94-.38c-13-1.16-22.18-2.41-37.19-.75-10.72-3.32-13,.35-26.44-1.43-21.59,2.69-27.22.26-46.51-4.75-.89-2.47-7.59,3-4.08-.74-7.5,2.24-10.29,0-10.34-.29-7.15-1.06-11.19,1.8-21.9-.66-8.37.87-21.15-3.7-22.08-2.74-.88,1.72-13,.18-21-.13-.82.18-14.1,1.62-20.19.66-16.54,1.71-23.28,2.53-33.39,0-10.23.64-20.47-.07-30.7,0-8.74-.73-24.57-.27-33.29,0-7.38-.2-4.66,1.3-10.46,1.63-5-1.07-12.8-2.08-18.66.24-20,1.21-37.93.18-57.88.61-18.38,3.35-36.75-1.74-55.13,0-11.85-.47-25.28.2-36.92.11-8-2.18-15.09,2.2-23.08,1-3.64,1.79-10-1.56-13.45.25-9.24.53-13.52,4.4-23.53,1.75a65.27,65.27,0,0,1-25.37.57c-19.61,3.2-37.61,3.3-58.93,3.11-16.58-5.77-33.3,0-49.9,0-24.16,3.18-46.39-.51-69.51-.74-14.57-3.34-27.48-.61-42.65-.48-16.7,2.25-28.67.48-45.09-1-9.62-.42-17.93,0-27.65-.25-14.52,1.37-28.17-.91-41-2.3-17.36-3.87-32-.31-51-1.41-13.58-.12-26.57,0-40.37.66-8.09-.11-16.76-.33-24.69,0-11.16,2.8-20.88,1.75-32.63,1.21-5.37-1.58-10.94,1-16.33,0-22.46-1.83-45.61,4.33-68.05,0-11.94-1.21-20.43.67-31.72,1.32-6.19.93-14.1,3-20.44-.07-14.81,3.77-24.76.36-36.6-1.57-15.88,4.2-27.55,1.41-46.39-2.1-17.21.14-34.42-2.13-51.63,0-15.38-1.87-31.23,2.48-47,.16-15.82,3.75-31.62.15-46.9-.13a241.54,241.54,0,0,0-49-3.22c-6.83-3.7-12-2.26-19.71-1.12-8.38-3.65-15.53,1.72-24.18-.45-8.2,1.13-16.45,2.21-24.4-.27-7.61-2.07-12.18,2.58-21-.51-8.06-1.08-11.47,1.37-18.64,1.54-6.09-1-11.67.28-17.68.45a106.84,106.84,0,0,0-26.09,1.09c-12.24,3.42-16.41-1.91-24.33,1.82-8.36.14-17.06,2.29-35.25,2.63-1.47,1.75-17,1.49-20.1.43a68.77,68.77,0,0,1-8.1-1.16,10.39,10.39,0,0,1,2.82,2.1c-1.23,8.06-10.75,4.5-14,2.08-.44.76-5.54.11-11.93.59-10.55-.67-24.35-4.5-40,.7-22.9,1.73-28.26,4.62-47.45-.11-13.66.16-27.36,1.57-47-.48-6.2,3.13-15.44-1.29-21.12-1.28-.32-1.06-28,2.11-29.86-.57V0Z"/></g></g></svg>