<svg xmlns="http://www.w3.org/2000/svg" viewBox="0 0 2032.79 169.59"><defs><style>.cls-1{fill:#100405;opacity:0.54;}</style></defs><g id="Camada_2" data-name="Camada 2"><g id="background"><path class="cls-1" d="M2032.79,0V169.17l-3.11-.38c-13.81-1.16-23.49-2.41-39.38-.75-11.35-3.32-13.78.35-28-1.43-22.86,2.69-28.82.26-49.24-4.75-1-2.47-8,3-4.32-.74-7.94,2.24-10.9,0-11-.29-7.57-1.06-11.85,1.8-23.19-.66-8.86.87-22.39-3.7-23.37-2.74-.94,1.72-13.82.18-22.24-.13-.87.18-14.93,1.62-21.37.66-17.52,1.71-24.65,2.53-35.36,0-10.83.64-21.67-.07-32.5,0-9.25-.73-26-.27-35.24,0-7.82-.2-4.94,1.3-11.08,1.63-5.25-1.07-13.55-2.08-19.76.24-21.21,1.21-40.15.18-61.28.61-19.46,3.35-38.9-1.74-58.36,0-12.55-.47-26.77.2-39.09.11-8.44-2.18-16,2.2-24.44,1-3.85,1.79-10.54-1.56-14.24.25-9.78.53-14.31,4.4-24.91,1.75a73.08,73.08,0,0,1-26.86.57c-20.76,3.2-39.82,3.3-62.39,3.11-17.56-5.77-35.26,0-52.83,0-25.58,3.18-49.12-.51-73.6-.74-15.42-3.34-29.09-.61-45.15-.48-17.68,2.25-30.36.48-47.74-1-10.19-.42-19,0-29.28-.25-15.37,1.37-29.82-.91-43.4-2.3-18.38-3.87-33.84-.31-54-1.41-14.38-.12-28.13,0-42.74.66-8.57-.11-17.75-.33-26.14,0-11.82,2.8-22.11,1.75-34.55,1.21-5.69-1.58-11.58,1-17.29,0-23.78-1.83-48.29,4.33-72,0-12.64-1.21-21.63.67-33.58,1.32-6.55.93-14.93,3-21.64-.07-15.68,3.77-26.22.36-38.75-1.57-16.81,4.2-29.17,1.41-49.12-2.1-18.22.14-36.44-2.13-54.66,0-16.28-1.87-33.06,2.48-49.81.16-16.75,3.75-33.48.15-49.66-.13a270.44,270.44,0,0,0-51.83-3.22c-7.23-3.7-12.7-2.26-20.87-1.12-8.87-3.65-16.44,1.72-25.6-.45-8.68,1.13-17.42,2.21-25.84-.27-8.05-2.07-12.89,2.58-22.24-.51-8.53-1.08-12.14,1.37-19.73,1.54-6.45-1-12.36.28-18.72.45a119.74,119.74,0,0,0-27.63,1.09c-12.95,3.42-17.37-1.91-25.76,1.82-8.85.14-18.06,2.29-37.32,2.63-1.55,1.75-18,1.49-21.28.43a76.94,76.94,0,0,1-8.57-1.16,10.86,10.86,0,0,1,3,2.1c-1.3,8.06-11.38,4.5-14.78,2.08-.46.76-5.86.11-12.63.59-11.17-.67-25.78-4.5-42.37.7-24.24,1.73-29.92,4.62-50.24-.11-14.46.16-29,1.57-49.73-.48-6.56,3.13-16.34-1.29-22.36-1.28C31.28,164.19,2,167.36,0,164.68V0Z"/></g></g></svg>