<svg xmlns="http://www.w3.org/2000/svg" viewBox="0 0 527.67 37.68"><defs><style>.cls-1{fill:#ef8022;}</style></defs><g id="Camada_2" data-name="Camada 2"><g id="content"><path class="cls-1" d="M275.16,16.61A47.11,47.11,0,0,0,283.83,21a3,3,0,0,0,2.06,0,54.65,54.65,0,0,1,25.44-1.53c2.33.4,4.62,1.08,6.92,1.67.55.15,1.21.33,1.16,1.09s-.68.77-1.16.91a56,56,0,0,1-20.19,2.37,60.14,60.14,0,0,1-12.78-2.37,1.38,1.38,0,0,0-.83-.1c-3.06,1.31-6.24,2.42-9,4.58a103,103,0,0,0,13.64,5.67c.79.28,1.75.23,1.32,1.66-.33,1.14-.68,1.37-1.79,1a101.54,101.54,0,0,1-14-6.42,1.93,1.93,0,0,0-2.48.18,54.6,54.6,0,0,0-6.82,6.06c-1,1.1-1.74,1.11-2.7,0a56.77,56.77,0,0,0-6.84-6,2.09,2.09,0,0,0-2.77-.16,91.57,91.57,0,0,1-13.69,6.29c-.82.31-1.44.5-1.8-.69s-.06-1.45,1-1.81a110.42,110.42,0,0,0,14-5.77,39.41,39.41,0,0,0-9-4.49c-1.36-.46-2.79.58-4.18.93A54.68,54.68,0,0,1,212,23.78c-.9-.23-1.79-.54-2.68-.79-.49-.14-.91-.37-.9-.92s.46-.77.93-.92a55.7,55.7,0,0,1,10.75-2.25A57,57,0,0,1,238.4,20c.1,0,.25-.07.33,0,5.47,2.86,9.35-1,13.91-3.14a72.51,72.51,0,0,0-8.59-4.44,102.82,102.82,0,0,0-26-8,99.94,99.94,0,0,0-25.34-.79,149.22,149.22,0,0,0-31.62,6.81c-11.3,3.56-22.47,7.48-33.66,11.35C116.05,25.69,104.74,30,93,32.9a166.16,166.16,0,0,1-23,4,133.87,133.87,0,0,1-24.84.34c-8.85-.77-17.61-2.13-25.91-5.47-7.44-3-14-7.27-18.76-13.89C-.16,17-.23,16.56.71,16A6.44,6.44,0,0,0,2,15.07c.75-.71,1.2-.51,1.76.3a42.7,42.7,0,0,0,14.8,13.18,52.88,52.88,0,0,0,17.62,5.87,83,83,0,0,0,14.85,1A154.15,154.15,0,0,0,74.45,32.9c18.3-3.34,35.75-9.52,53.16-15.84,11-4,22-7.93,33.17-11.46A115.31,115.31,0,0,1,185.29.47,112.76,112.76,0,0,1,210.66,1a124.32,124.32,0,0,1,41.7,13.85,2.72,2.72,0,0,0,3.52-.36,64.28,64.28,0,0,0,7.05-6.34c.74-.78,1.15-.83,1.92,0a65,65,0,0,0,7.62,6.73,2,2,0,0,0,2.52.2A130.34,130.34,0,0,1,302.47,4,112.49,112.49,0,0,1,323.91.3a113.77,113.77,0,0,1,18.37.16,118,118,0,0,1,26.06,5.62c8.52,2.8,17.08,5.53,25.51,8.62,10.46,3.83,20.92,7.68,31.54,11.05,7.73,2.46,15.57,4.49,23.52,6.19A162.45,162.45,0,0,0,469.1,35a86.2,86.2,0,0,0,26.28-1.31c10.06-2.22,18.81-6.76,25.74-14.51a40.13,40.13,0,0,0,3.17-4c.6-.88,1-.69,1.64-.17,2.21,1.75,2.22,1.72.54,3.89-5.28,6.8-12.38,10.94-20.37,13.71A87.86,87.86,0,0,1,484.67,37a132.87,132.87,0,0,1-15.44.62A173.12,173.12,0,0,1,443,34.68c-15.1-2.87-29.38-8.41-43.83-13.4-10.75-3.7-21.47-7.49-32.32-10.89a173.62,173.62,0,0,0-24.84-6,101.76,101.76,0,0,0-22.59-1.06,97.4,97.4,0,0,0-33.71,8.33C282.17,13.18,278.72,14.83,275.16,16.61Zm-19.38-.06,7.31,4.38c.43.26.76.61,1.38.22,2.44-1.53,4.93-3,7.51-4.56a71.63,71.63,0,0,1-7.47-6.48c-.45-.5-.72-.34-1.11.05A67.75,67.75,0,0,1,255.78,16.55Zm.39,11.32A60.92,60.92,0,0,1,263.22,34c.58.64.95.31,1.44-.13,2-1.78,4-3.58,6.1-5.25,1-.77.51-1.07-.19-1.48l-5.72-3.41c-.5-.29-.9-.59-1.57-.17C261,25.05,258.61,26.42,256.17,27.87Zm6.41-5.54c-2.67-1.58-5-2.92-7.27-4.3a1.67,1.67,0,0,0-1.95.09,45.83,45.83,0,0,1-7.79,3.95,57.27,57.27,0,0,1,8.35,4.39c.45.3.77.09,1.11-.09C257.45,25.09,259.86,23.79,262.58,22.33Zm2.76,0a52.21,52.21,0,0,1,5.31,3c1.93,1.38,3.49,1.28,5.43-.08A50,50,0,0,1,282.14,22a48.17,48.17,0,0,1-7.79-3.95c-.38-.25-.74-.62-1.27-.31Zm-52.7-.18a50.39,50.39,0,0,0,27.37,0A48.11,48.11,0,0,0,212.64,22.13Zm75.12,0a51.22,51.22,0,0,0,27.57,0A48.54,48.54,0,0,0,287.76,22.12Z"/></g></g></svg>